# xmcd
#
# Track frame offsets:
#	150
#	14060
#	25870
#	38770
#	50350
#	62350
#	76475
#	90455
#	101900
#	115335
#	127285
#	138785
#	151145
#	163035
#	172845
#	188310
#
# Disc length: 2676
#
# Revision: 2
# Processed by: cddbd v1.5.1PL0 Copyright (c) Steve Scherf et al.
# Submitted via: EasyCDDAExtractor 6.0.0.1
# Normalized: r1:DSETVAR1
#
DISCID=c30a7210
DTITLE=Various Artist - Hot Country CD4-6
DYEAR=2004
DGENRE=Country
TTITLE0=Lynn Anderson - Rose Garten
TTITLE1=Billie Jo Spears - Try a little
TTITLE2=Kitty wells - making believe
TTITLE3=sammi smith - help me make it throu the night
TTITLE4=wilma burgess - misty blue
TTITLE5=barbara fairchild - the teddy bear song
TTITLE6=jeannie seely - on day at a time
TTITLE7=connie smith - just one time
TTITLE8=lacy j dalton - dream baby
TTITLE9=bonnie guitar - dark moon
TTITLE10=donna fargo - superman
TTITLE11=jean shepherd - then he touched me
TTITLE12=skeeter davis - i'm falling too
TTITLE13=rosse maddox - sing a little son of heartache
TTITLE14=melba montgomery - no charge
TTITLE15=jeannie pruitt - satin sheets
EXTD=
EXTT0=
EXTT1=
EXTT2=
EXTT3=
EXTT4=
EXTT5=
EXTT6=
EXTT7=
EXTT8=
EXTT9=
EXTT10=
EXTT11=
EXTT12=
EXTT13=
EXTT14=
EXTT15=
PLAYORDER=
